<svg width="32" height="32" viewBox="0 0 32 32" fill="none" xmlns="http://www.w3.org/2000/svg">
    <path fill-rule="evenodd" clip-rule="evenodd" d="M16 30C8.268 30 2 23.732 2 16S8.268 2 16 2s14 6.268 14 14-6.268 14-14 14zm0-8.4a5.6 5.6 0 1 1 0-11.2 5.6 5.6 0 0 1 0 11.2z" fill="#A9C6F8"/>
    <path d="M20.998 18.528c.385-.76.602-1.619.602-2.529a5.58 5.58 0 0 0-.485-2.282 128.05 128.05 0 0 0 7.279-4.235A13.94 13.94 0 0 1 30 16c0 2.39-.6 4.641-1.656 6.61a154.326 154.326 0 0 0-7.346-4.08zM13.538 10.969A5.578 5.578 0 0 1 16 10.4c.897 0 1.745.211 2.497.586a128.42 128.42 0 0 1 4.233-7.265A13.937 13.937 0 0 0 16 2c-2.369 0-4.6.588-6.556 1.627a155.514 155.514 0 0 1 4.094 7.342zM3.741 22.766A13.937 13.937 0 0 1 2 16c0-2.419.614-4.695 1.694-6.68a129.364 129.364 0 0 0 7.26 4.247A5.579 5.579 0 0 0 10.4 16c0 .968.245 1.878.677 2.673a155.855 155.855 0 0 0-7.336 4.094zM22.73 28.28A13.937 13.937 0 0 1 16 30c-2.369 0-4.6-.588-6.556-1.627a155.406 155.406 0 0 0 4.094-7.342A5.579 5.579 0 0 0 16 21.6c.897 0 1.745-.211 2.497-.586a128.427 128.427 0 0 0 4.233 7.265z" fill="#F0F6FE"/>
</svg>
