<svg height="512pt" viewBox="0 -21 512 512" width="512pt" xmlns="http://www.w3.org/2000/svg"><path d="m448 0h-384c-35.285156 0-64 28.714844-64 64v341.332031c0 35.285157 28.714844 64 64 64h384c35.285156 0 64-28.714843 64-64v-341.332031c0-35.285156-28.714844-64-64-64zm0 426.667969h-384c-11.753906 0-21.332031-9.558594-21.332031-21.335938v-298.664062h426.664062v298.664062c0 11.777344-9.578125 21.335938-21.332031 21.335938zm0 0"/><path d="m334.996094 287.339844c.429687-3.308594 1.003906-6.59375 1.003906-10.007813 0-3.433593-.597656-6.699219-1.003906-10.003906l19.222656-14.550781c4.289062-3.242188 5.484375-9.171875 2.792969-13.84375l-17.257813-29.867188c-2.6875-4.652344-8.425781-6.589844-13.375-4.5l-22.121094 9.320313c-5.398437-4.117188-11.136718-7.742188-17.472656-10.386719l-2.945312-23.488281c-.683594-5.335938-5.207032-9.34375-10.582032-9.34375h-34.496093c-5.375 0-9.917969 4.007812-10.582031 9.34375l-2.941407 23.488281c-6.335937 2.644531-12.097656 6.292969-17.472656 10.386719l-22.121094-9.320313c-4.972656-2.089844-10.710937-.171875-13.398437 4.5l-17.238282 29.867188c-2.6875 4.652344-1.492187 10.582031 2.792969 13.84375l19.222657 14.550781c-.425782 3.304687-1.023438 6.570313-1.023438 10.003906 0 3.4375.597656 6.699219 1.003906 10.007813l-19.222656 14.546875c-4.289062 3.242187-5.484375 9.175781-2.792969 13.847656l17.257813 29.867187c2.6875 4.648438 8.425781 6.589844 13.375 4.5l22.121094-9.34375c5.398437 4.117188 11.136718 7.742188 17.472656 10.390626l2.945312 23.484374c.683594 5.355469 5.207032 9.367188 10.582032 9.367188h34.496093c5.375 0 9.917969-4.011719 10.582031-9.34375l2.941407-23.488281c6.335937-2.644531 12.097656-6.292969 17.472656-10.390625l22.121094 9.324218c4.953125 2.089844 10.691406.171876 13.378906-4.5l17.257813-29.890624c2.6875-4.648438 1.492187-10.582032-2.792969-13.84375zm-78.996094 32.660156c-23.574219 0-42.667969-19.09375-42.667969-42.667969 0-23.570312 19.09375-42.664062 42.667969-42.664062s42.667969 19.09375 42.667969 42.664062c0 23.574219-19.09375 42.667969-42.667969 42.667969zm0 0" /></svg>