<?xml version="1.0" encoding="iso-8859-1"?>
<!-- Generator: Adobe Illustrator 19.0.0, SVG Export Plug-In . SVG Version: 6.00 Build 0)  -->
<svg version="1.1" id="Capa_1" xmlns="http://www.w3.org/2000/svg" xmlns:xlink="http://www.w3.org/1999/xlink" x="0px" y="0px"
	 viewBox="0 0 512 512" style="enable-background:new 0 0 512 512;" xml:space="preserve">
<g>
	<g>
		<g>
			<rect x="128" y="144" width="32" height="32"/>
			<rect x="192" y="144" width="32" height="32"/>
			<polygon points="256,144 256,176 480,176 480,336 32,336 32,176 96,176 96,144 0,144 0,368 512,368 512,144 			"/>
			<path d="M64,304h96v-96H64V304z M96,240h32v32H96V240z"/>
			<path d="M352,208v96h96v-96H352z M416,272h-32v-32h32V272z"/>
			<path d="M208,304h96v-96h-96V304z M240,240h32v32h-32V240z"/>
		</g>
	</g>
</g>
<g>
</g>
<g>
</g>
<g>
</g>
<g>
</g>
<g>
</g>
<g>
</g>
<g>
</g>
<g>
</g>
<g>
</g>
<g>
</g>
<g>
</g>
<g>
</g>
<g>
</g>
<g>
</g>
<g>
</g>
</svg>
