<?xml version="1.0" encoding="utf-8"?>
<!-- Generator: Adobe Illustrator 27.9.0, SVG Export Plug-In . SVG Version: 6.00 Build 0)  -->
<svg version="1.1" id="Layer_1" xmlns="http://www.w3.org/2000/svg" xmlns:xlink="http://www.w3.org/1999/xlink" x="0px" y="0px"
	 viewBox="0 0 500 500" style="enable-background:new 0 0 500 500;" xml:space="preserve">
<style type="text/css">
	.st0{fill:url(#SVGID_1_);}
	.st1{fill:url(#SVGID_00000078752512887004802280000005689619808096703373_);}
	.st2{fill:url(#SVGID_00000000938455338878114860000005090300476476082311_);}
	.st3{fill:url(#SVGID_00000062888845095373847610000015670046095858653342_);}
</style>
<linearGradient id="SVGID_1_" gradientUnits="userSpaceOnUse" x1="249.37" y1="308.6733" x2="249.37" y2="200.05">
	<stop  offset="0" style="stop-color:#29BADE"/>
	<stop  offset="1" style="stop-color:#50E6FF"/>
</linearGradient>
<path class="st0" d="M293.28,244.51c-24.56,0-44.48-19.9-44.51-44.46c-29.99,0.33-54.04,24.92-53.71,54.91
	c0.33,29.99,24.92,54.04,54.91,53.71c29.99-0.33,54.04-24.92,53.71-54.91c-0.04-3.45-0.4-6.88-1.09-10.26
	C299.53,244.16,296.41,244.5,293.28,244.51z"/>
<linearGradient id="SVGID_00000075854636923193000240000013142184365114077320_" gradientUnits="userSpaceOnUse" x1="179.9192" y1="404.2232" x2="179.9192" y2="95.4182">
	<stop  offset="0.041" style="stop-color:#32BEDD"/>
	<stop  offset="0.495" style="stop-color:#50E6FF"/>
	<stop  offset="0.92" style="stop-color:#C3F1FF"/>
</linearGradient>
<path style="fill:url(#SVGID_00000075854636923193000240000013142184365114077320_);" d="M355.99,311.23
	c-1.99-19.58-8.13-38.52-18-55.55c-2.87,46.51-41.38,82.8-87.99,82.88c-2.11,0-4.09-0.47-6.15-0.63
	c-46.65-0.61-91.35-18.85-125.12-51.05c-29.03-27.89-50.56-62.66-62.6-101.08c-15.89,14.44-30.93,29.78-45.06,45.94
	c-10.12,9.37-10.74,25.17-1.37,35.29c0.44,0.48,0.9,0.93,1.37,1.37c30.37,36.42,66.16,67.97,106.1,93.53
	c40.17,27.53,87.73,42.27,136.43,42.29c31.65,0.18,62.88-7.25,91.06-21.65c1.78-0.82,3.32-1.92,5.08-2.74
	C355.98,357.54,358.1,334.28,355.99,311.23z"/>
<linearGradient id="SVGID_00000118398247856370114850000009538093576200672444_" gradientUnits="userSpaceOnUse" x1="207.845" y1="278.7343" x2="207.845" y2="9.9709">
	<stop  offset="0.244" style="stop-color:#0078D4"/>
	<stop  offset="0.6" style="stop-color:#2E8CE1"/>
	<stop  offset="0.933" style="stop-color:#589EED"/>
</linearGradient>
<path style="fill:url(#SVGID_00000118398247856370114850000009538093576200672444_);" d="M172,291.17
	c-18.74-34.51-12.1-77.28,16.22-104.48c22.25-29.95,53.43-52.05,89.06-63.12c19.42-5.93,39.58-9.11,59.88-9.44
	c-16.34-7.08-33.44-12.24-50.96-15.37c-47.99-8.08-97.31,0.06-140.16,23.14c-23.97,12.44-46.6,27.32-67.51,44.41
	c9.87,37.68,29.79,71.97,57.63,99.21C146.9,275.63,158.96,284.26,172,291.17z"/>
<linearGradient id="SVGID_00000142887456421092235290000000266993271742146961_" gradientUnits="userSpaceOnUse" x1="377.0232" y1="404.4025" x2="377.0232" y2="118.0746">
	<stop  offset="0" style="stop-color:#005BA1"/>
	<stop  offset="0.399" style="stop-color:#0078D4"/>
	<stop  offset="0.857" style="stop-color:#5EA0EF"/>
</linearGradient>
<path style="fill:url(#SVGID_00000142887456421092235290000000266993271742146961_);" d="M489.59,232.96
	c-26.82-32.13-57.79-60.54-92.1-84.5c-35.88-9.8-73.75-9.61-109.53,0.55c-10.74,3.28-21.13,7.68-30.93,13.17
	c15.33,1.08,30.11,6.15,42.87,14.71c1.14,0.33,2.24,0.82,3.24,1.45c42.69,28.67,71.46,73.89,79.34,124.71
	c2.51,19.72,2.2,39.68-0.91,59.31c40.67-25.85,77.07-57.85,107.91-94.88c9.56-8.9,10.1-23.87,1.19-33.43
	C490.32,233.67,489.96,233.31,489.59,232.96z"/>
</svg>
