<svg xmlns="http://www.w3.org/2000/svg"  viewBox="0 0 48 48" width="48px" height="48px"><path fill="#26c6da" d="M44,7.74V24l-15,2l-15-2V7.74C14,6.78,14.78,6,15.74,6h26.52C43.22,6,44,6.78,44,7.74z"/><path fill="#006064" d="M44,24v16.26c0,0.96-0.78,1.74-1.74,1.74H15.74C14.78,42,14,41.22,14,40.26V24H44z"/><path fill="#00838f" d="M22.319,34H5.681C4.753,34,4,33.247,4,32.319V15.681C4,14.753,4.753,14,5.681,14h16.638 C23.247,14,24,14.753,24,15.681v16.638C24,33.247,23.247,34,22.319,34z"/><path fill="#fff" d="M17.276,20.625h-4.317v2.524H17v1.618h-4.041V29H11V19h6.276L17.276,20.625z"/><rect width="10" height="10" x="30" y="28" fill="#00838f"/><circle cx="35" cy="15" r="6" fill="#0097a7"/><circle cx="35" cy="15" r="3" fill="#006064"/></svg>