<svg xmlns="http://www.w3.org/2000/svg"  viewBox="0 0 48 48" width="48px" height="48px" baseProfile="basic"><path fill="#7250db" d="M6.198,11.364c-1.521,0.352-2.493,1.898-2.117,3.484l0.849,3.577	c0.362,1.524,1.858,2.472,3.379,2.119l7.68-1.779l-4.048-8.732L6.198,11.364z"/><polygon fill="#7c51db" points="22.015,7.7 12.273,9.957 11.941,10.034 15.989,18.765 16.321,18.688 26.063,16.431"/><polygon fill="#8953db" points="32.089,5.366 22.347,7.623 22.015,7.7 26.063,16.431 26.395,16.354 36.136,14.097"/><path fill="#a157db" d="M41.888,9.862l-0.844-3.669c-0.351-1.527-1.858-2.472-3.379-2.12l-5.244,1.215l-0.332,0.077	l4.048,8.732l0.332-0.077l3.307-0.766C41.297,12.902,42.239,11.389,41.888,9.862z"/><path fill="#de9bf7" d="M4,14.162v8.767c0,1.6,1.283,2.888,2.877,2.888H44v-5.296v-0.531	c0-1.564-1.205-2.835-2.738-2.933V17.05H6.877C5.283,17.05,4,15.762,4,14.162L4,14.162z"/><path fill="#b370f5" d="M30.295,17.05v8.767H44v-5.296v-0.531c0-1.564-1.205-2.835-2.738-2.933V17.05	L30.295,17.05z"/><path fill="#945bf5" d="M4,22.929v9.461c0,0.856,0.367,1.622,0.953,2.15H44v-8.723H6.877 C5.283,25.817,4,24.529,4,22.929L4,22.929z"/><path fill="#cd87f8" d="M4,22.929v9.461c0,0.856,0.367,1.622,0.953,2.15h12.776v-8.723H6.877 C5.283,25.817,4,24.529,4,22.929L4,22.929z"/><path fill="#6146f4" d="M4,31.652v9.461C4,42.712,5.283,44,6.877,44h34.246	C42.717,44,44,42.712,44,41.112v-6.573H6.877C5.283,34.539,4,33.252,4,31.652L4,31.652z"/></svg>