<svg xmlns="http://www.w3.org/2000/svg"  viewBox="0 0 48 48" width="48px" height="48px" baseProfile="basic"><radialGradient id="yRNsYj0k48m_5059Aqtv_a" cx="-1207.054" cy="544.406" r=".939" gradientTransform="matrix(-11.7002 31.247 54.5012 20.4075 -43776.117 26617.47)" gradientUnits="userSpaceOnUse"><stop offset=".064" stop-color="#bf8af6"/><stop offset=".533" stop-color="#3079d6"/><stop offset="1" stop-color="#11408c"/></radialGradient><path fill="url(#yRNsYj0k48m_5059Aqtv_a)" d="M20.084,3.026L19.86,3.162c-0.357,0.216-0.694,0.458-1.008,0.722l0.648-0.456H25L26,11l-5,5	l-5,3.475v4.007c0,2.799,1.463,5.394,3.857,6.844l5.264,3.186L14,40h-2.145l-3.998-2.42C5.463,36.131,4,33.535,4,30.736V17.261	c0-2.8,1.464-5.396,3.86-6.845l12-7.259C19.934,3.112,20.009,3.068,20.084,3.026z"/><radialGradient id="yRNsYj0k48m_5059Aqtv_b" cx="-1152.461" cy="523.628" r="1" gradientTransform="matrix(30.7198 -4.5183 -2.9847 -20.2925 36976.637 5454.876)" gradientUnits="userSpaceOnUse"><stop offset=".211" stop-color="#bf8af6"/><stop offset="1" stop-color="#591c96"/></radialGradient><path fill="url(#yRNsYj0k48m_5059Aqtv_b)" d="M32,19v4.48c0,2.799-1.463,5.394-3.857,6.844l-12,7.264c-2.455,1.486-5.509,1.54-8.007,0.161	l11.722,7.095c2.547,1.542,5.739,1.542,8.285,0l12-7.264C42.537,36.131,44,33.535,44,30.736V27.5L43,26L32,19z"/><radialGradient id="yRNsYj0k48m_5059Aqtv_c" cx="-1236.079" cy="516.112" r="1.19" gradientTransform="matrix(-24.1583 -6.1256 -10.3118 40.6682 -24498.48 -28534.523)" gradientUnits="userSpaceOnUse"><stop offset=".059" stop-color="#50e6ff"/><stop offset=".68" stop-color="#3079d6"/><stop offset="1" stop-color="#11408c"/></radialGradient><path fill="url(#yRNsYj0k48m_5059Aqtv_c)" d="M40.14,10.415l-12-7.259c-2.467-1.492-5.538-1.538-8.043-0.139L19.86,3.162	C17.464,4.611,16,7.208,16,10.007v9.484l3.86-2.335c2.546-1.54,5.735-1.54,8.281,0l12,7.259c2.321,1.404,3.767,3.884,3.855,6.583	C43.999,30.911,44,30.824,44,30.736V17.26C44,14.461,42.536,11.864,40.14,10.415z"/></svg>