<svg xmlns="http://www.w3.org/2000/svg"  viewBox="0 0 48 48" width="48px" height="48px"><path fill="#25abb2" d="M28,28V17.372c0-0.651,0.613-1.127,1.247-0.976c5.471,1.301,9.691,5.805,10.569,11.427 C39.912,28.438,39.449,29,38.826,29H29C28.448,29,28,28.552,28,28z M25,28V5c0-0.552-0.448-1-1-1H12c-0.552,0-1,0.448-1,1v11 c0,7.18,5.82,13,13,13h0C24.552,29,25,28.552,25,28z M11,33v10c0,0.552,0.448,1,1,1h13c0,0,0.662,0,1,0 c6.617,0,12.147-4.595,13.607-10.766C39.756,32.605,39.274,32,38.628,32H12C11.448,32,11,32.448,11,33z"/></svg>