<svg xmlns="http://www.w3.org/2000/svg"  viewBox="0 0 48 48" width="48px" height="48px"><path fill="#66bb6a" d="M40,7.74v19.52c0,0.96-0.78,1.74-1.74,1.74H29l-3-12l3-11h9.26C39.22,6,40,6.78,40,7.74z"/><path fill="#2e7d32" d="M18,17l5.5-2l5.5,2v16.26c0,0.96-0.78,1.74-1.74,1.74H18l-2-9L18,17z"/><path fill="#1b5e20" d="M16.26,42H8.74C7.779,42,7,41.221,7,40.26V24l5.5-2l5.5,2v16.26C18,41.221,17.221,42,16.26,42z"/><path fill="#2e7d32" d="M18,24H7V7.74C7,6.78,7.78,6,8.74,6H18l2,9L18,24z"/><rect width="11" height="11" x="18" y="6" fill="#43a047"/></svg>