<svg xmlns="http://www.w3.org/2000/svg"  viewBox="0 0 48 48" width="48px" height="48px"><linearGradient id="xAGFPLBfYtwwGNe8fnA90a" x1="6.674" x2="30.141" y1="10.224" y2="33.81" gradientUnits="userSpaceOnUse"><stop offset="0" stop-color="#9d2f90"/><stop offset=".314" stop-color="#982e8d"/><stop offset=".666" stop-color="#8b2c83"/><stop offset="1" stop-color="#772874"/></linearGradient><path fill="url(#xAGFPLBfYtwwGNe8fnA90a)" d="M18.926,44.317L2.49,25.23c-0.62-0.72-0.62-1.791,0-2.511L18.926,3.633 c0.755-0.877,2.104-0.877,2.859,0L38.22,22.719c0.62,0.72,0.62,1.791,0,2.511L21.785,44.317 C21.03,45.194,19.681,45.194,18.926,44.317z"/><path d="M38.22,25.23c0.62-0.72,0.62-1.791,0-2.511L22.494,4.455l-5.812,6.215 c-1.199,1.344-1.185,3.364,0.037,4.702l7.696,8.265c0.176,0.193,0.176,0.482,0,0.674l-7.641,8.36 c-1.215,1.33-1.221,3.353-0.008,4.711l5.694,6.149L38.22,25.23z" opacity=".05"/><path d="M38.22,25.23c0.62-0.72,0.62-1.791,0-2.511L22.822,4.836l-5.767,6.167 c-1.028,1.152-1.017,2.882,0.03,4.028l7.699,8.269c0.351,0.385,0.352,0.965,0,1.349l-7.641,8.36 c-1.042,1.141-1.048,2.872-0.01,4.035l5.656,6.108L38.22,25.23z" opacity=".07"/><path d="M38.22,25.23c0.62-0.72,0.62-1.791,0-2.511L23.15,5.217l-5.722,6.118 c-0.856,0.96-0.848,2.4,0.022,3.354l7.703,8.273c0.526,0.577,0.526,1.447,0,2.023l-7.641,8.36c-0.868,0.95-0.876,2.391-0.013,3.357 l5.617,6.066L38.22,25.23z" opacity=".09"/><linearGradient id="xAGFPLBfYtwwGNe8fnA90b" x1="16.835" x2="39.082" y1="11.995" y2="38.287" gradientUnits="userSpaceOnUse"><stop offset="0" stop-color="#e286c5"/><stop offset=".413" stop-color="#e081c3"/><stop offset=".878" stop-color="#da74be"/><stop offset="1" stop-color="#d86fbc"/></linearGradient><path fill="url(#xAGFPLBfYtwwGNe8fnA90b)" d="M45.518,22.745L28.257,3.658c-0.79-0.885-2.174-0.885-2.964,0l-7.492,8.011 c-0.683,0.765-0.676,1.923,0.015,2.68l7.707,8.277c0.697,0.764,0.697,1.933,0,2.697l-7.641,8.36 c-0.692,0.757-0.698,1.915-0.015,2.68l7.389,7.979c0.79,0.885,2.174,0.885,2.964,0l17.299-19.087 C46.156,24.54,46.156,23.46,45.518,22.745z"/><linearGradient id="xAGFPLBfYtwwGNe8fnA90c" x1="27.41" x2="45.997" y1="24" y2="24" gradientUnits="userSpaceOnUse"><stop offset="0" stop-color="#f2a1c7"/><stop offset=".62" stop-color="#ed9ec8"/><stop offset="1" stop-color="#e799ca"/></linearGradient><path fill="url(#xAGFPLBfYtwwGNe8fnA90c)" d="M35.322,33.484l-7.384-8.103c-0.704-0.773-0.704-1.989,0-2.762l7.384-8.103 c0.752-0.825,2.01-0.825,2.762,0l7.384,8.103c0.704,0.773,0.704,1.989,0,2.762l-7.384,8.103 C37.332,34.31,36.075,34.31,35.322,33.484z" opacity=".61"/><path fill="none" d="M45.518,22.745L28.257,3.658c-0.79-0.885-2.174-0.885-2.964,0l-7.492,8.011 c-0.683,0.765-0.676,1.923,0.015,2.68l7.707,8.277c0.697,0.764,0.697,1.933,0,2.697l-7.641,8.36 c-0.692,0.757-0.698,1.915-0.015,2.68l7.389,7.979c0.79,0.885,2.174,0.885,2.964,0l17.299-19.087 C46.156,24.54,46.156,23.46,45.518,22.745z"/></svg>