<svg xmlns="http://www.w3.org/2000/svg"  viewBox="0 0 48 48" width="48px" height="48px"><path fill="#26c6da" d="M44,7.74V32l-15,3l-15-3V7.74C14,6.78,14.78,6,15.74,6h26.52C43.22,6,44,6.78,44,7.74z"/><path fill="#00838f" d="M44,32v8.26c0,0.96-0.78,1.74-1.74,1.74H15.74C14.78,42,14,41.22,14,40.26V32l15-3L44,32z"/><circle cx="38.5" cy="11.5" r="2.5" fill="#84ffff"/><path fill="#00acc1" d="M44,22.55V32H24.55l13.04-13.04c0.78-0.78,2.04-0.78,2.82,0L44,22.55z"/><path fill="#0097a7" d="M44,28.55V32H14.55l15.04-15.04c0.78-0.78,2.04-0.78,2.82,0L44,28.55z"/><path fill="#006064" d="M22.319,34H5.681C4.753,34,4,33.247,4,32.319V15.681C4,14.753,4.753,14,5.681,14h16.638 C23.247,14,24,14.753,24,15.681v16.638C24,33.247,23.247,34,22.319,34z"/><path fill="#fff" d="M10.432,28.75v-2.298c0.426,0.349,2.391,1.048,2.9,1.048c0.299,0,2.138,0.088,2.138-1.041 c0-1.633-5.082-1.494-5.082-4.725c0-0.536,0.066-3.059,4.133-3.059c1.041,0,2.271,0.261,2.628,0.395v2.147 c-0.176-0.12-0.89-0.718-2.496-0.718c-1.877,0-2.04,0.883-2.04,1.041c0,1.359,4.998,1.544,4.998,4.711 c0,3.172-3.614,3.074-4.177,3.074C12.857,29.325,10.814,28.942,10.432,28.75z"/></svg>