<svg xmlns="http://www.w3.org/2000/svg"  viewBox="0 0 48 48" width="48px" height="48px"><path fill="#c2185b" d="M43.98,24c0,0.77-0.36,1.54-1.09,2.01L16.72,42.56c-1.6,1.05-3.72-0.1-3.72-2.01V24l15-2L43.98,24z"/><path fill="#f06292" d="M43.98,24H13V7.45c0-1.91,2.12-3.06,3.72-2.01l26.17,16.55C43.61,22.46,43.98,23.23,43.98,24z"/><path fill="#880e4f" d="M6,14.429v20.028c0,1.061,1.201,1.675,2.061,1.054l14.42-10.415c0.735-0.531,0.715-1.633-0.04-2.136 l-14.42-9.614C7.157,12.771,6,13.391,6,14.429z"/></svg>